#!OML:ASF I:\Actors\actors\Patient Classification 1\Patient 1\Session 1\Subject1.ASF
:FULLY-SPECIFIED
:DEGREES
1034
root 0.746023 17.5403 8.90911 12.1031 -3.70391 -9.67456
lowerback 1.39122 0.50231 4.75082
upperback -6.546 1.14062 3.31003
thorax -7.62292 0.386171 0.729149
lowerneck -19.1494 -3.86493 -0.909019
upperneck 24.5601 -6.71923 5.23206
head 11.3954 -2.46576 1.03169
rclavicle 1.09549e-014 -5.36719e-015
rhumerus 35.3205 54.9385 -41.2857
rradius 63.8828
rwrist 12.2482
rhand 11.7573 -41.3871
rfingers 7.12502
rthumb 36.7911 292.495
lclavicle 1.09549e-014 -5.36719e-015
lhumerus 50.4782 -59.953 30.7295
lradius 54.1233
lwrist 25.1463
lhand -1.19549 -4.09415
lfingers 7.12502
lthumb 24.4448 24.3662
rfemur -8.57942 27.7789 23.3532
rtibia 1.02703
rfoot -10.0496 -25.3311
rtoes 2.45741
lfemur 4.003 -55.1264 -11.0652
ltibia -4.92009
lfoot -40.6962 61.2379
ltoes 23.4812
1035
root 0.750615 17.5414 8.91406 12.1637 -3.96086 -9.63006
lowerback 1.32184 0.46392 4.75203
upperback -6.54001 1.08576 3.3579
thorax -7.57824 0.361158 0.783474
lowerneck -19.0574 -3.83042 -0.716254
upperneck 24.4125 -6.64198 4.95974
head 11.2995 -2.45389 0.913678
rclavicle -1.5968e-014 2.62396e-014
rhumerus 35.2123 55.0524 -40.4617
rradius 65.6206
rwrist 12.1681
rhand 10.983 -41.538
rfingers 7.12502
rthumb 36.058 292.16
lclavicle -1.5968e-014 2.62396e-014
lhumerus 51.0544 -60.1372 28.7219
lradius 55.966
lwrist 25.8239
lhand -5.55218 -6.23279
lfingers 7.12502
lthumb 20.2628 22.7303
rfemur -8.6612 27.7073 23.2384
rtibia 1.03174
rfoot -9.94083 -25.0053
rtoes 2.16054
lfemur 4.03387 -54.9888 -11.1954
ltibia -4.9068
lfoot -41.0061 61.2361
ltoes 23.5946
1036
root 0.759353 17.5397 8.91583 12.141 -4.08661 -9.8896
lowerback 1.39995 0.396137 5.13321
upperback -6.5194 1.0272 3.48314
thorax -7.60358 0.312743 0.707625
lowerneck -19.0494 -3.8835 -0.622232
upperneck 24.4871 -6.66324 4.64318
head 11.309 -2.49399 0.779542
rclavicle -6.1002e-015 3.23522e-014
rhumerus 35.1013 54.9899 -39.8805
rradius 66.8416
rwrist 13.222
rhand 9.34554 -41.8225
rfingers 7.12502
rthumb 34.5053 291.507
lclavicle -6.1002e-015 3.23522e-014
lhumerus 51.923 -60.3228 26.6006
lradius 57.0147
lwrist 22.2837
lhand -13.0135 -8.95877
lfingers 7.12502
lthumb 13.0802 20.6111
rfemur -8.56436 27.4677 23.5737
rtibia 1.00139
rfoot -9.85835 -24.6156
rtoes 1.8368
lfemur 4.23604 -54.7252 -11.1156
ltibia -4.93991
lfoot -40.7991 61.1845
ltoes 23.4872
1037
root 0.772394 17.5333 8.91444 11.9085 -4.05395 -10.6415
lowerback 1.77664 0.29518 6.16248
upperback -6.46079 0.991182 3.69167
thorax -7.76295 0.236274 0.357938
lowerneck -19.143 -3.82219 -0.684301
upperneck 24.5953 -6.54463 4.57059
head 11.3632 -2.45126 0.780119
rclavicle -1.35267e-015 -3.83157e-014
rhumerus 34.9532 54.6604 -39.7303
rradius 67.4455
rwrist 14.4481
rhand 7.01417 -41.9859
rfingers 7.12502
rthumb 32.2892 290.867
lclavicle -1.35267e-015 -3.83157e-014
lhumerus 52.474 -60.2341 25.2681
lradius 57.5487
lwrist 19.3806
lhand -19.8293 -11.0674
lfingers 7.12502
lthumb 6.50463 18.8128
rfemur -8.11719 27.0672 24.6548
rtibia 0.922715
rfoot -9.68779 -24.167
rtoes 1.39857
lfemur 4.96631 -54.467 -10.8516
ltibia -5.12974
lfoot -40.3089 61.1657
ltoes 23.217
1038
root 0.776527 17.5362 8.91782 11.7936 -4.17428 -10.6815
lowerback 1.89022 0.210928 6.29533
upperback -6.43622 0.896435 3.72393
thorax -7.80721 0.181654 0.325996
lowerneck -19.2353 -3.68755 -0.634702
upperneck 24.6219 -6.38669 4.62083
head 11.3871 -2.36651 0.813336
rclavicle 2.12319e-014 -3.18055e-014
rhumerus 34.9491 54.1289 -39.7688
rradius 67.5625
rwrist 15.5084
rhand 4.74201 -42.3885
rfingers 7.12502
rthumb 30.1239 290.047
lclavicle 2.12319e-014 -3.18055e-014
lhumerus 52.7488 -59.9279 24.7016
lradius 57.4828
lwrist 16.5441
lhand -26.178 -12.7717
lfingers 7.12502
lthumb 0.373796 17.2077
rfemur -7.93549 27.1235 24.7413
rtibia 0.859254
rfoot -9.59479 -24.148
rtoes 1.28316
lfemur 5.4901 -54.8581 -11.2807
ltibia -5.14228
lfoot -41.2779 61.3981
ltoes 23.6946
1039
root 0.768706 17.5464 8.92143 12.0227 -4.47545 -9.87838
lowerback 1.58718 0.176779 5.28963
upperback -6.54214 0.762745 3.58746
thorax -7.74656 0.172973 0.752444
lowerneck -19.2058 -3.62111 -0.578522
upperneck 24.6125 -6.31558 4.63964
head 11.3745 -2.32782 0.82243
rclavicle -1.23743e-014 -4.6615e-014
rhumerus 34.914 53.4105 -40.0148
rradius 67.3423
rwrist 16.3775
rhand 3.17975 -43.0249
rfingers 7.12502
rthumb 28.6323 289.149
lclavicle -1.23743e-014 -4.6615e-014
lhumerus 52.8848 -59.5298 24.7318
lradius 56.8377
lwrist 13.6034
lhand -32.1802 -13.558
lfingers 7.12502
lthumb -5.42273 16.3527
rfemur -8.37421 27.6521 23.562
rtibia 0.90547
rfoot -9.65749 -24.5406
rtoes 1.42372
lfemur 5.13091 -55.4768 -11.969
ltibia -4.95288
lfoot -42.8563 61.687
ltoes 24.4482
1040
root 0.764479 17.5493 8.91661 12.2838 -4.6242 -9.42046
lowerback 1.33756 0.137152 4.70332
upperback -6.64505 0.659995 3.54285
thorax -7.71375 0.156569 1.04092
lowerneck -19.1728 -3.60632 -0.490156
upperneck 24.5729 -6.2919 4.54077
head 11.3452 -2.32339 0.775837
rclavicle -6.48613e-015 -6.62201e-015
rhumerus 34.823 52.4101 -40.517
rradius 66.7943
rwrist 17.2691
rhand 2.12708 -43.5693
rfingers 7.12502
rthumb 27.6261 288.439
lclavicle -6.48613e-015 -6.62201e-015
lhumerus 52.8044 -58.9217 25.44
lradius 55.8349
lwrist 11.3966
lhand -37.0782 -13.7403
lfingers 7.12502
lthumb -10.1501 15.9948
rfemur -8.85763 27.8971 22.8111
rtibia 1.01734
rfoot -9.71043 -24.7155
rtoes 1.6733
lfemur 4.49379 -55.5264 -11.9654
ltibia -4.88607
lfoot -42.9563 61.7678
ltoes 24.4661
